<?xml version="1.0" encoding="UTF-8"?>
<svg id="Layer_1" xmlns="http://www.w3.org/2000/svg" version="1.1" viewBox="0 0 465 300">
  <!-- Generator: Adobe Illustrator 30.0.0, SVG Export Plug-In . SVG Version: 2.1.1 Build 123)  -->
  <defs>
    <style>
      .st0 {
        fill: none;
      }

      .st1 {
        fill: #a3fe00;
      }

      .st2 {
        fill: #f9f9f9;
      }

      .st3 {
        fill: #964ce2;
      }
    </style>
  </defs>
  <polygon class="st0" points="275.35 214.02 287.38 214.02 285.31 193.46 275.35 214.02"/>
  <path class="st0" d="M258.7,107.97l1.48-7.3c.84-4.49-1.1-6.72-5.81-6.72h-9.58l-3.99,20.75h9.58c4.72,0,7.49-2.24,8.32-6.72Z"/>
  <path class="st0" d="M349.33,212.55h-9.86l-2.39,11.93h9.86c1.6,0,2.92-.43,4-1.29,1.06-.87,1.75-2.02,2.02-3.47l.52-2.39c.27-1.52.05-2.69-.67-3.53s-1.89-1.25-3.48-1.25h0Z"/>
  <path class="st0" d="M159.54,73.52c-1.66,0-3.51.2-5.49.61l-97.41,19.23c-7.33,1.49-14.57,9.31-15.47,16.75h0l-13.48,108.82,28.37-45.32c1.87-2.19,4.49-3.39,7.24-3.41l54.71-.94c7.8-.05,17.25-6.41,20.23-13.6l27.31-67.53c2.18-5.23,2.59-9.87,1.08-12.14-1.48-2.22-5.46-2.46-7.09-2.46ZM123.54,110.91l-6.95,18.55-25.29,3.29c-1.69.33-3.39,2.11-3.67,3.86v.09l-3.1,11-14.04.7h-.24c-1.19,0-2.22-.44-2.95-1.26-.78-.87-1.1-2.04-.9-3.3l3.93-24.87c.38-2.45,2.59-4.75,5.02-5.23l43.24-8.67c1.98-.4,3.61,0,4.56,1.14.96,1.13,1.1,2.8.4,4.7v.02Z"/>
  <path class="st0" d="M354.61,185.69h-9.97l-2.07,10.68h9.97c3.12,0,4.88-1.31,5.29-3.94l.62-2.8c.55-2.63-.73-3.94-3.83-3.94h-.02Z"/>
  <path class="st1" d="M197.94,81.44c-1.14-1.63-2.22-3.24-3.29-4.81-9.43-13.91-16.87-24.87-33.59-22.46l-108.22,20.43c-15.31,3.1-28.77,17.66-30.66,33.17L7.37,237.22c-.67,5.48.32,9.62,3.01,12.67,2.11,2.39,5.16,3.76,8.34,3.76,4.63,0,7.53-2.46,11.21-5.58l.53-.47,43.54-52.24c.82-.72,2.43-1.29,3.53-1.22l50.42,2.15c21.62,1.52,36.06-6.5,44.06-24.54l26.02-58.83c5.07-13.77,5.04-24.05-.09-31.45v-.02ZM165.55,88.11l-27.31,67.53c-2.98,7.2-12.44,13.54-20.23,13.6l-54.71.94c-2.75.02-5.37,1.22-7.24,3.41l-28.37,45.32,13.48-108.82h0c.9-7.44,8.14-15.26,15.47-16.75l97.41-19.23c1.98-.4,3.82-.61,5.49-.61s5.61.24,7.09,2.46c1.51,2.27,1.1,6.91-1.08,12.14h0Z"/>
  <path class="st1" d="M118.58,105.07l-43.24,8.67c-2.43.49-4.64,2.78-5.02,5.23l-3.93,24.87c-.2,1.26.12,2.43.9,3.3.73.82,1.78,1.26,2.95,1.26h.24l14.04-.7,3.09-11v-.09c.3-1.75,1.99-3.53,3.68-3.86l25.29-3.29,6.95-18.55c.72-1.9.58-3.56-.4-4.7-.96-1.13-2.59-1.54-4.56-1.14v-.02Z"/>
  <path class="st2" d="M237.16,133.4h14.26c9.19,0,16.31-1.96,21.33-5.87,5.02-3.91,8.37-10.16,10.04-18.76l1.7-8.9c1.67-8.6.76-14.83-2.74-18.76-3.5-3.91-9.84-5.87-19.05-5.87h-38.43l-15.5,80.04h24.17l4.21-21.89v.02ZM244.8,93.95h9.58c4.72,0,6.65,2.24,5.81,6.72l-1.48,7.3c-.84,4.49-3.61,6.72-8.32,6.72h-9.58l3.99-20.75Z"/>
  <polygon class="st2" points="303.4 155.29 318.92 75.25 294.74 75.25 279.24 155.29 303.4 155.29"/>
  <path class="st2" d="M316.8,149.87c3.76,4.37,11.05,6.56,21.83,6.56h6.62c9.51,0,17.68-.68,24.51-2.05l3.42-17.33h-27.93c-5.86,0-8.17-3.04-6.95-9.13l4.9-25.32c1.22-6.09,4.72-9.13,10.5-9.13h27.37l3.3-17.33c-6.24-1.37-14.13-2.05-23.72-2.05h-6.04c-10.8,0-18.91,2.19-24.34,6.56-5.43,4.37-9.14,11.53-11.12,21.5l-5.13,26.23c-1.9,9.97-.97,17.12,2.8,21.5h-.02Z"/>
  <path class="st2" d="M457,75.25h-26.69l-21.44,26.69c-.91,1.37-1.55,2.43-1.93,3.19l5.81-29.88h-24.17l-15.5,80.04h24.17l3.07-16.31,9.01-10.73,9.01,27.02h26.69l-17.1-45.49,29.07-34.55v.02Z"/>
  <path class="st3" d="M376.09,199.23c1.8-2.18,2.97-4.75,3.53-7.73l.73-3.53c1.25-6.3.3-11.09-2.8-14.38-3.12-3.29-8.23-4.93-15.35-4.93h-36.21l-13.46,69.48-10.19-69.48h-24.28l-30.91,57.87.52-2.68h-29.88l10.68-55.2h-22l-14.1,72.84h69.62l5.29-10.89h21.79l1.14,10.89h57.69c15.21,0,24.14-6.71,26.76-20.13l.73-3.74c.68-3.53.5-6.5-.58-8.93-1.08-2.42-2.81-3.97-5.23-4.67,2.56-1.03,4.73-2.65,6.54-4.82l-.02.02ZM275.35,214.02l9.97-20.54,2.07,20.54h-12.03ZM353.47,217.33l-.52,2.39c-.27,1.45-.96,2.62-2.02,3.47-1.08.87-2.4,1.29-4,1.29h-9.86l2.39-11.93h9.86c1.6,0,2.75.41,3.48,1.25s.94,2.01.67,3.53h0ZM358.46,189.63l-.62,2.8c-.41,2.63-2.18,3.94-5.29,3.94h-9.97l2.07-10.68h9.97c3.12,0,4.4,1.31,3.83,3.94h.02Z"/>
  <path class="st3" d="M409.5,167.63c-14.18,0-22.52,6.33-25.01,18.99l-1.03,5.29c-1.17,6.09-.75,10.66,1.29,13.75,2.04,3.07,5.99,5.2,11.88,6.37l14.32,2.91c2.34.49,3.32,1.84,2.91,4.05l-.41,1.98c-.56,2.63-2.28,3.94-5.19,3.94h-27.81l-3.12,15.78c5.81,1.25,13.04,1.87,21.68,1.87h11.11c14.1,0,22.41-6.33,24.91-18.99l1.25-6.22c1.17-6.09.75-10.66-1.29-13.75-2.04-3.07-5.96-5.2-11.78-6.37l-14.42-2.91c-2.36-.49-3.32-1.76-2.91-3.83l.3-1.45c.49-2.5,2.04-3.74,4.67-3.74h27.49l3.01-15.78c-5.67-1.25-12.87-1.87-21.57-1.87h-10.27v-.02Z"/>
</svg>