<?xml version="1.0" encoding="UTF-8"?>
<svg id="Layer_1" xmlns="http://www.w3.org/2000/svg" version="1.1" viewBox="0 0 445.13 150">
  <defs>
    <style>
      .st0 {
        fill: #0ca810;
        stroke: #33a513;
      }
    </style>
  </defs>
  <path class="st0" d="M140.87,20.95c-6.59-9.72-11.8-17.4-23.49-15.7l-75.67,14.29c-10.7,2.17-20.12,12.35-21.44,23.19l-10.37,90.5c-.47,3.83.22,6.73,2.11,8.86,1.48,1.67,3.6,2.63,5.83,2.63,3.23,0,5.27-1.72,7.84-3.91l.37-.33,30.45-36.53c.58-.49,1.71-.91,2.46-.85l35.26,1.5c15.12,1.07,25.21-4.54,30.81-17.16l18.19-41.14c3.54-9.63,3.52-16.82-.07-21.99-.79-1.14-1.56-2.27-2.3-3.36ZM120.53,28.98l-19.1,47.23c-2.09,5.03-8.7,9.47-14.15,9.51l-38.26.66c-1.93.01-3.75.86-5.07,2.39l-19.84,31.69,9.42-76.1h0c.63-5.2,5.69-10.67,10.82-11.71l68.12-13.44c1.38-.28,2.67-.42,3.84-.42s3.92.17,4.96,1.72c1.05,1.58.77,4.83-.75,8.49Z"/>
  <path class="st0" d="M87.68,40.84l-30.23,6.06c-1.7.34-3.24,1.95-3.51,3.66l-2.75,17.39c-.14.88.08,1.7.63,2.31.51.57,1.24.88,2.07.88.05,0,.11,0,.17,0l9.82-.49,2.15-7.69v-.07c.21-1.23,1.4-2.47,2.58-2.7l17.68-2.3,4.86-12.97c.5-1.33.4-2.49-.27-3.28-.67-.79-1.81-1.08-3.2-.8Z"/>
  <path class="st0" d="M179.71,44.04h-21.99l-9.04,46.64h11.83l2.59-13.42h10.17c5.23,0,9.26-1.12,12.09-3.36,2.83-2.24,4.74-5.79,5.71-10.66l1-5.18c.97-4.87.46-8.43-1.53-10.66-1.99-2.24-5.6-3.36-10.83-3.36ZM180.18,58.46l-.86,4.45c-.66,3.37-2.75,5.05-6.25,5.05h-8.17l2.86-14.55h8.17c3.5,0,4.92,1.68,4.25,5.05Z"/>
  <polygon class="st0" points="193.53 90.68 204.62 90.68 211.47 55.2 200.37 55.2 193.53 90.68"/>
  <path class="st0" d="M213.1,42.28c-.91-1.04-2.36-1.56-4.35-1.56s-3.6.52-4.95,1.56c-1.35,1.04-2.16,2.36-2.42,3.95-.31,1.55,0,2.85.93,3.89.93,1.04,2.37,1.56,4.32,1.56s3.65-.52,4.98-1.56c1.33-1.04,2.15-2.34,2.46-3.89.27-1.59-.06-2.91-.96-3.95Z"/>
  <path class="st0" d="M233.26,54.6c-5.01,0-8.87,1.09-11.59,3.26-2.72,2.17-4.51,5.43-5.35,9.77l-2.06,10.7c-.84,4.34-.32,7.59,1.56,9.73,1.88,2.15,5.33,3.22,10.33,3.22h2.86c3.59,0,7.35-.29,11.29-.86l1.53-7.84h-12.76c-1.59,0-2.68-.35-3.26-1.06-.58-.71-.71-1.9-.4-3.59l1.93-9.97c.57-3.1,2.41-4.65,5.51-4.65h12.62l1.46-7.77c-3.5-.62-7.15-.93-10.96-.93h-2.72Z"/>
  <polygon class="st0" points="286.61 55.2 273.85 55.2 262.96 67.23 267.74 42.71 256.64 42.71 247.34 90.68 258.44 90.68 260.1 82.04 263.69 78.32 268.87 90.68 281.29 90.68 272.12 70.61 286.61 55.2"/>
  <polygon class="st0" points="307.27 44.04 295.44 44.04 286.41 90.68 318.63 90.68 320.49 81.05 300.09 81.05 307.27 44.04"/>
  <path class="st0" d="M348.73,54.6h-1.73c-4.92,0-9.59.36-14.02,1.06l-1.39,7.04h13.55c2.92,0,4.12,1.42,3.59,4.25l-.47,2.26c-2.08-.31-4.19-.47-6.31-.47h-2.39c-3.94,0-7.13.88-9.57,2.62-2.44,1.75-3.96,4.24-4.58,7.47l-.47,2.39c-.62,3.19-.06,5.66,1.69,7.41,1.75,1.75,4.6,2.62,8.54,2.62h3.59c5.98,0,11.52-.49,16.61-1.46l4.45-22.72c1.59-8.33-2.11-12.49-11.1-12.49ZM345.6,82.97c-.93.18-2.26.27-3.99.27h-2.46c-2.35,0-3.32-.97-2.92-2.92l.2-1.13c.4-1.95,1.77-2.92,4.12-2.92h2.13c1.68,0,3.08.11,4.19.33l-1.26,6.38Z"/>
  <path class="st0" d="M389.45,54.6h-2.13c-1.51,0-3.54.18-6.11.53l2.46-12.42h-11.09l-9.1,46.64c4.87,1.28,10.34,1.93,16.41,1.93h2.46c8.95,0,14.22-4.14,15.81-12.42l2.33-11.76c1.59-8.33-2.08-12.49-11.03-12.49ZM388.92,69.35l-1.66,8.37c-.53,2.92-2.3,4.39-5.32,4.39h-1.59c-1.86,0-3.28-.11-4.25-.33l3.39-17.61c1.46-.27,3.03-.4,4.72-.4h1.26c1.73,0,2.83.44,3.32,1.33.49.89.53,2.3.13,4.25Z"/>
  <path class="st0" d="M418.15,65.1c.31-1.33,1.28-1.99,2.92-1.99h14.02l1.46-7.51c-3.63-.66-7.55-1-11.76-1h-3.59c-4.3,0-7.55.86-9.77,2.59-2.22,1.73-3.65,4.28-4.32,7.64l-.2,1c-1.11,5.89.91,9.26,6.05,10.1l8.24,1.39c1.51.22,2.15.98,1.93,2.26l-.2,1.13c-.27,1.42-1.31,2.13-3.12,2.13h-14.62l-1.46,7.51c3.85.62,7.84.93,11.96.93h4.19c4.3,0,7.55-.86,9.77-2.59,2.21-1.73,3.65-4.3,4.32-7.71l.2-1.2c1.15-5.98-.84-9.39-5.98-10.23l-8.24-1.4c-1.55-.22-2.19-.95-1.93-2.19l.13-.86Z"/>
</svg>
