<?xml version="1.0" encoding="UTF-8"?>
<svg id="Layer_1" xmlns="http://www.w3.org/2000/svg" version="1.1" viewBox="0 0 138.85 142.53">
  <!-- Generator: Adobe Illustrator 30.0.0, SVG Export Plug-In . SVG Version: 2.1.1 Build 123)  -->
  <defs>
    <style>
      .st0 {
        fill: #a3fe00;
      }
    </style>
  </defs>
  <path class="st0" d="M136.09,19.69c-.81-1.17-1.59-2.31-2.34-3.43C127.02,6.34,121.71-1.49,109.78.24L32.59,14.82c-10.92,2.21-20.52,12.6-21.87,23.66L.14,130.81c-.48,3.91.23,6.86,2.15,9.04,1.51,1.7,3.68,2.68,5.95,2.68,3.3,0,5.37-1.76,8-3.99l.38-.33,31.06-37.27c.59-.5,1.74-.92,2.51-.87l35.97,1.53c15.43,1.09,25.72-4.63,31.43-17.51l18.56-41.97c3.62-9.82,3.59-17.16-.07-22.44h0ZM112.99,24.45l-19.48,48.18c-2.13,5.13-8.87,9.66-14.44,9.7l-39.03.67c-1.97.01-3.83.87-5.17,2.43l-20.24,32.33,9.61-77.63h0c.65-5.31,5.81-10.89,11.04-11.95l69.49-13.71c1.41-.29,2.73-.43,3.92-.43s4,.17,5.06,1.75c1.07,1.61.78,4.93-.77,8.66h.01Z"/>
  <path class="st0" d="M79.48,36.54l-30.84,6.18c-1.73.35-3.31,1.98-3.58,3.73l-2.8,17.74c-.14.9.08,1.74.64,2.36.52.58,1.27.9,2.11.9h.17l10.02-.5,2.2-7.84v-.07c.21-1.25,1.43-2.52,2.63-2.76l18.04-2.35,4.96-13.23c.51-1.35.41-2.54-.28-3.35-.69-.81-1.85-1.1-3.26-.81h-.01Z"/>
</svg>