<?xml version="1.0" encoding="UTF-8"?>
<svg id="Layer_1" data-name="Layer 1" xmlns="http://www.w3.org/2000/svg" viewBox="0 0 28.16 28.91">
  <defs>
    <style>
      .cls-1 {
        fill: #33a513;
      }
    </style>
  </defs>
  <path class="cls-1" d="M27.6,3.99c-.16-.24-.32-.47-.48-.7C25.76,1.29,24.69-.3,22.27.05L6.61,3.01c-2.21.45-4.16,2.56-4.44,4.8L.03,26.53c-.1.79.05,1.39.44,1.83.31.35.75.54,1.21.54.67,0,1.09-.36,1.62-.81l.08-.07,6.3-7.56c.12-.1.35-.19.51-.18l7.3.31c3.13.22,5.22-.94,6.38-3.55l3.76-8.51c.73-1.99.73-3.48-.01-4.55ZM22.92,4.96l-3.95,9.77c-.43,1.04-1.8,1.96-2.93,1.97l-7.92.14c-.4,0-.78.18-1.05.49l-4.11,6.56,1.95-15.75h0c.13-1.08,1.18-2.21,2.24-2.42l14.1-2.78c.29-.06.55-.09.79-.09s.81.03,1.03.36c.22.33.16,1-.16,1.76Z"/>
  <path class="cls-1" d="M16.12,7.41l-6.26,1.25c-.35.07-.67.4-.73.76l-.57,3.6c-.03.18.02.35.13.48.11.12.26.18.43.18.01,0,.02,0,.03,0l2.03-.1.45-1.59h0c.04-.27.29-.52.53-.57l3.66-.48,1.01-2.68c.1-.27.08-.52-.06-.68-.14-.16-.37-.22-.66-.17Z"/>
</svg>